<?xml version="1.0"?>
<svg id="_图层_1" data-name="图层_1" xmlns="http://www.w3.org/2000/svg" version="1.1" viewBox="0 0 834.45 227.68">
  
  <defs>
    
  </defs>
  <g>
    <circle class="st0" cx="113.84" cy="113.84" r="113.84"></circle>
    <g>
      <path d="M113.84,53.02c-7.74,0-15.05,1.83-21.54,5.06l1.46-10.69c.26-1.92-1.42-3.53-3.33-3.19l-16.04,2.86c-1.21.22-2.15,1.19-2.31,2.41l-6.02,44.38c-.79,5.05-.82,10.35.11,15.8,3.64,21.38,21.45,37.91,43.05,39.92,28.8,2.68,53.02-19.92,53.02-48.17,0-26.72-21.66-48.38-48.38-48.38M116.64,128.69c-17.35,1.72-31.81-12.74-30.09-30.09,1.27-12.84,11.65-23.22,24.49-24.49,17.35-1.72,31.8,12.74,30.09,30.09-1.27,12.84-11.65,23.22-24.49,24.49Z"></path>
      <path d="M159.56,166.11c.96,1.35.58,3.17-.8,4.08-12.9,8.44-28.33,13.34-44.89,13.34s-32.01-4.91-44.91-13.36c-1.38-.91-1.75-2.72-.8-4.07l8.81-12.48c.88-1.24,2.58-1.59,3.86-.77,9.53,6.14,20.88,9.7,33.04,9.7s23.5-3.55,33.02-9.68c1.28-.82,2.98-.47,3.86.77l8.82,12.48Z"></path>
    </g>
  </g>
  <g>
    <path d="M610.53,80.69c-24.87,0-45.03,20.16-45.03,45.03s20.16,45.03,45.03,45.03c18.18,0,33.83-10.77,40.95-26.27l-19.82-5.3c-4.45,6.97-12.25,11.6-21.13,11.6-11.11,0-20.53-7.23-23.81-17.25h47.63s20.54,0,20.54,0c.44-2.54.68-5.15.68-7.82,0-24.87-20.16-45.03-45.04-45.03ZM610.53,100.66c10.52,0,19.53,6.49,23.24,15.68h-46.48c3.71-9.19,12.72-15.68,23.24-15.68Z"></path>
    <path d="M539.15,119.96h0s-34.06-8.14-34.06-8.14h0c-2.27-.46-3.98-2.46-3.98-4.86,0-2.74,2.22-4.96,4.96-4.96h0s48.48,0,48.48,0v-20.06h-48.48c-13.82,0-25.02,11.2-25.02,25.02,0,12.13,8.63,22.24,20.09,24.53h0s10.38,2.48,10.38,2.48h0s19.78,4.72,19.78,4.72l3.9.93h0s0,0,0,0h0c2.27.45,3.98,2.46,3.98,4.86,0,2.74-2.22,4.96-4.96,4.96h-50.04v20.06h50.03s0,0,0,0c13.82,0,25.02-11.2,25.02-25.02,0-12.13-8.63-22.24-20.09-24.53Z"></path>
    <path d="M427.84,80.69c-24.87,0-45.03,20.16-45.03,45.03s20.16,45.03,45.03,45.03c9.28,0,17.9-2.81,25.06-7.62v6.36h20.06v-43.78h-.09c0-24.87-20.16-45.03-45.03-45.03ZM427.84,150.79c-13.84,0-25.06-11.22-25.06-25.06s11.22-25.06,25.06-25.06,25.06,11.22,25.06,25.06-11.22,25.06-25.06,25.06Z"></path>
    <path d="M329.06,80.69c-6.95,0-13.53,1.58-19.41,4.39l4.06-28.16-20.84,3.13-8.4,59.31h0c-.29,2.08-.45,4.21-.45,6.37,0,24.87,20.16,45.03,45.04,45.03s45.03-20.16,45.03-45.03-20.16-45.03-45.03-45.03ZM329.06,150.74c-13.82,0-25.02-11.2-25.02-25.02,0-1.29.1-2.56.29-3.8h0s.03-.23.03-.23c1.92-11.9,12.25-21,24.69-21,13.82,0,25.02,11.2,25.02,25.02s-11.2,25.02-25.02,25.02Z"></path>
    <path d="M726.87,135.1c0,10.36-10.28,15.64-20.64,15.64h0c-10.36,0-20.64-5.27-20.64-15.64v-53.17h-20.02v56.44c0,20.73,19.93,32.38,40.66,32.38h0c20.73,0,40.66-11.65,40.66-32.38v-56.44h-20.02v53.17Z"></path>
    <path d="M814.37,119.96h0s-34.06-8.14-34.06-8.14h0c-2.27-.46-3.98-2.46-3.98-4.86,0-2.74,2.22-4.96,4.96-4.96h0s48.48,0,48.48,0v-20.06h-48.48s0,0,0,0c-13.82,0-25.02,11.2-25.02,25.02,0,12.13,8.63,22.24,20.09,24.53h0s10.38,2.48,10.38,2.48h0s19.66,4.7,19.66,4.7l4.02.96h0s0,0,0,0h0c2.27.45,3.98,2.46,3.98,4.86,0,2.74-2.22,4.96-4.96,4.96h-50.04v20.06h50.03s0,0,0,0c13.82,0,25.02-11.2,25.02-25.02,0-12.13-8.63-22.24-20.09-24.53Z"></path>
  </g>
</svg>