<svg enable-background="new 0 0 512 512" height="512" viewBox="0 0 512 512" width="512" xmlns="http://www.w3.org/2000/svg"><g id="形状_2_3_" enable-background="new"><g id="形状_2"><g><path clip-rule="evenodd" d="m318.214 201.984h-28.739v108.28h78.267v-23.633h-49.527v-84.647zm110.118 47.126v19.135h21.931s.212 24.089-22.425 24.089c-5.751 0-10.873-2.087-14.819-6.027-6.136-6.137-9.383-16.474-9.383-29.881 0-22.202 8.824-35.457 23.601-35.457 9.231 0 16.17 5.668 17.947 14.257h30.485c-1.583-12.48-5.009-18.985-13.361-25.615-8.977-6.952-20.527-10.479-34.317-10.479-16.375 0-30.052 5.026-39.559 14.533-9.931 9.932-15.184 24.563-15.184 42.311 0 18.958 5.557 34.96 15.644 45.042 7.914 7.914 18.474 12.099 30.545 12.099 26.507 0 32.604-15.888 32.604-15.888v13.036h23.937v-61.155z" fill="#707070" fill-rule="evenodd"></path></g></g></g><g id="形状_2_2_" enable-background="new"><g id="形状_2_1_"><g><path clip-rule="evenodd" d="m145.553 146.969c-60.491 0-109.531 49.041-109.531 109.532 0 60.49 49.04 109.53 109.531 109.53 60.493 0 109.532-49.04 109.532-109.53 0-60.491-49.039-109.532-109.532-109.532zm26.673 148.075v8.407h-22.685v.06h-8.41v-94.19h8.41v85.724h22.685zm-26.673 53.148c-50.637 0-91.69-41.05-91.69-91.691 0-50.64 41.054-91.69 91.69-91.69 1.337 0 2.667.028 3.99.086l-.009 8.349c-1.32-.063-2.646-.092-3.98-.092-46.031 0-83.348 37.315-83.348 83.348 0 46.034 37.317 83.349 83.348 83.349 44.778 0 81.307-35.304 83.267-79.6l.021-.244h-56.481v-8.409h64.757c.087 1.628.129 3.256.129 4.904-.002 50.641-41.054 91.69-91.694 91.69zm-21.32-126.377c0 7.114-5.768 12.882-12.882 12.882-7.116 0-12.882-5.768-12.882-12.882s5.766-12.882 12.882-12.882c7.114.001 12.882 5.768 12.882 12.882z" fill="#c6004d" fill-rule="evenodd"></path></g></g></g></svg>